<svg viewBox="0 0 161 33" fill="none" xmlns="http://www.w3.org/2000/svg">
  <path d="M17.462 18.547c-.234 0-.463-.064-.67-.186L2.122 9.615a1.249 1.249 0 0 1 .09-2.204L16.876.138a1.32 1.32 0 0 1 1.164 0L32.808 7.39c.42.207.69.62.712 1.076.02.455-.218.89-.622 1.128L18.13 18.36a1.316 1.316 0 0 1-.67.186zM3.476 8.56l13.986 8.338 14.076-8.36-14.076-6.913L3.476 8.561z" fill="#010202"/>
  <path d="M17.462 32.924a.817.817 0 0 1-.425-.116l-15.65-9.33a.784.784 0 0 1-.27-1.09.822.822 0 0 1 1.116-.266l15.229 9.08 14.942-8.873v-2.866L17.88 28.087a.832.832 0 0 1-.844 0L1.387 18.76A.784.784 0 0 1 1 18.08v-4.762a.8.8 0 0 1 .414-.694.834.834 0 0 1 .819.016l15.229 9.08 15.33-9.107a.827.827 0 0 1 1.115.265.784.784 0 0 1-.27 1.091L17.88 23.325a.832.832 0 0 1-.844 0L2.626 14.732v2.903l14.841 8.847 15.325-9.106a.834.834 0 0 1 .818-.016.794.794 0 0 1 .414.694v4.72a.795.795 0 0 1-.388.678l-15.755 9.36a.83.83 0 0 1-.42.112z" fill="#010202"/>
  <path d="M51.57 16.48c0 .79-.133 1.505-.404 2.146a4.596 4.596 0 0 1-1.131 1.642 5.197 5.197 0 0 1-1.754 1.055c-.68.249-1.44.376-2.274.376h-3.045a.705.705 0 0 1-.707-.705v-9.027c0-.386.314-.704.707-.704h3.045c.84 0 1.594.127 2.274.376.68.249 1.265.598 1.754 1.054.488.45.866 1.001 1.131 1.642.271.641.404 1.356.404 2.146zm-7.885-3.909v7.825H45.9c.596 0 1.148-.085 1.669-.26.515-.175.962-.429 1.334-.763.372-.334.664-.747.882-1.224.212-.482.324-1.033.324-1.663 0-.625-.106-1.181-.324-1.663a3.622 3.622 0 0 0-.882-1.224 3.72 3.72 0 0 0-1.334-.763 5.167 5.167 0 0 0-1.669-.26h-2.215v-.005zM54.652 21.699h-.021a.705.705 0 0 1-.707-.705v-9.027c0-.386.314-.704.707-.704h.021c.388 0 .707.312.707.704V21a.708.708 0 0 1-.707.699zM57.782 20.115a.654.654 0 0 1 .85-.191 5.928 5.928 0 0 0 1.334.524c.388.106.834.16 1.334.16.882 0 1.525-.154 1.918-.462.393-.307.595-.704.595-1.191 0-.223-.043-.419-.133-.594-.085-.175-.234-.334-.446-.487a3.855 3.855 0 0 0-.845-.434 14.678 14.678 0 0 0-1.334-.435 13.185 13.185 0 0 1-1.631-.556c-.457-.196-.84-.413-1.132-.652a2.35 2.35 0 0 1-.664-.816 2.499 2.499 0 0 1-.218-1.07c0-.906.345-1.61 1.036-2.113.69-.504 1.653-.758 2.885-.758.665 0 1.228.053 1.7.159.474.106.856.223 1.16.35.073.031.148.063.217.095.388.18.515.667.282 1.022l-.011.016a.706.706 0 0 1-.898.244 2.495 2.495 0 0 0-.24-.106 7.301 7.301 0 0 0-.934-.297 5.39 5.39 0 0 0-1.28-.137c-.713 0-1.287.132-1.738.392-.447.26-.67.635-.67 1.123 0 .196.043.37.133.519.085.153.239.296.452.434.212.138.499.27.855.398.356.127.792.26 1.318.402.685.186 1.26.387 1.727.599.467.217.845.45 1.131.715.293.26.5.55.622.869.123.318.18.678.18 1.07 0 .429-.079.826-.233 1.202-.16.371-.398.694-.722.965-.325.27-.745.487-1.255.64-.51.16-1.115.234-1.812.234-.685 0-1.275-.064-1.764-.191a6.203 6.203 0 0 1-1.222-.434 4.973 4.973 0 0 1-.335-.18c-.36-.223-.467-.679-.212-1.028zM67.277 11.978c0-.387.314-.705.707-.705h3.693c1.313 0 2.343.297 3.087.896.744.598 1.116 1.467 1.116 2.617 0 .593-.1 1.112-.303 1.562-.202.45-.494.832-.871 1.14-.377.306-.83.54-1.36.693a6.106 6.106 0 0 1-1.754.233h-2.88V21a.705.705 0 0 1-.707.705h-.02a.705.705 0 0 1-.708-.704v-9.022zm7.115 2.845c0-.763-.255-1.33-.76-1.696-.504-.365-1.18-.545-2.013-.545h-2.912v4.556h2.912c.85 0 1.525-.18 2.024-.546.5-.37.75-.959.75-1.77zM77.926 21v-9.033c0-.386.313-.704.707-.704h.02c.389 0 .708.312.708.704v8.429h5.276c.388 0 .707.312.707.704a.605.605 0 0 1-.606.604h-6.105a.709.709 0 0 1-.707-.704zM92.204 11.263h.297l4.708 9.419a.703.703 0 0 1-.632 1.017h-.064a.71.71 0 0 1-.632-.387l-.66-1.314h-5.738l-.659 1.314a.699.699 0 0 1-.632.387h-.048a.704.704 0 0 1-.632-1.017l4.692-9.42zm.228 2.818h-.175l-2.04 4.471-.107.175h4.485l-.106-.175-2.057-4.471zM105.015 11.263c.553 0 .888.604.595 1.07l-3.252 5.197a.7.7 0 0 0-.106.37V21a.705.705 0 0 1-.707.704h-.037a.705.705 0 0 1-.707-.704v-3.084a.67.67 0 0 0-.106-.365l-3.241-5.218a.698.698 0 0 1 .595-1.065h.021c.245 0 .473.127.6.334l2.509 4.047c.016.027.026.048.042.074l.277.604h.106l.297-.614c.011-.022.022-.037.032-.059l2.482-4.052a.7.7 0 0 1 .6-.34zM107.629 20.046a.649.649 0 0 1 .851-.19 5.938 5.938 0 0 0 1.328.524c.388.106.834.158 1.334.158.882 0 1.525-.153 1.918-.46.393-.308.595-.705.595-1.192 0-.223-.043-.419-.133-.594-.085-.174-.234-.333-.446-.487a3.975 3.975 0 0 0-.845-.434 14.157 14.157 0 0 0-1.334-.435 13.164 13.164 0 0 1-1.631-.556c-.462-.196-.84-.413-1.132-.652a2.359 2.359 0 0 1-.664-.815 2.491 2.491 0 0 1-.218-1.07c0-.906.345-1.611 1.036-2.114.691-.503 1.653-.758 2.886-.758.664 0 1.227.053 1.7.16.473.105.855.222 1.158.349.075.031.149.063.218.095.388.18.516.668.282 1.023l-.011.015a.706.706 0 0 1-.898.244 2.426 2.426 0 0 0-.239-.106 7.307 7.307 0 0 0-.935-.296 5.388 5.388 0 0 0-1.281-.138c-.712 0-1.286.132-1.737.392-.447.26-.67.636-.67 1.123 0 .196.043.37.133.519.085.154.239.297.452.434.212.138.499.27.855.398.356.127.792.26 1.318.402.685.186 1.259.387 1.727.599.462.217.845.45 1.132.715.292.26.499.551.621.869.123.318.186.678.186 1.07 0 .43-.079.826-.233 1.203-.16.37-.399.694-.723.964-.324.27-.744.487-1.254.64-.51.16-1.116.234-1.812.234-.686 0-1.275-.064-1.764-.19a6.189 6.189 0 0 1-1.222-.435 4.6 4.6 0 0 1-.362-.196.702.702 0 0 1-.186-1.012zM123.507 11.263c.255 0 .478.164.547.408l1.923 6.5.245.906h.106l.255-.933c.006-.016.011-.026.011-.042l2.216-6.447a.57.57 0 0 1 .542-.387h.106c.489 0 .829.482.664.943l-3.273 9.032a.705.705 0 0 1-.664.466.649.649 0 0 1-.622-.46l-1.902-6.39-.138-.434h-.085l-.123.435-1.923 6.352a.702.702 0 0 1-.675.497.568.568 0 0 1-.537-.376l-3.305-9.117a.706.706 0 0 1 .664-.943h.091c.244 0 .462.154.542.382l2.247 6.441.016.059.239.927h.107l.26-.906 1.94-6.495a.534.534 0 0 1 .526-.418zM153.035 11.263h7.258c.388 0 .707.312.707.704a.605.605 0 0 1-.606.604h-3.023V21a.706.706 0 0 1-.707.704h-.021a.705.705 0 0 1-.707-.704V12.57h-3.007a.605.605 0 0 1-.606-.604.72.72 0 0 1 .712-.704zM144.033 17.17v3.194h5.675a.63.63 0 0 1 .633.63v.037a.63.63 0 0 1-.633.63h-6.461a.629.629 0 0 1-.632-.63V11.91c0-.339.271-.61.611-.61h6.482a.63.63 0 0 1 .633.631v.037a.63.63 0 0 1-.633.63h-5.675v3.317h4.841a.629.629 0 1 1 0 1.26h-4.841v-.005zM133.948 17.17v3.194h5.675c.351 0 .632.28.632.63v.037c0 .35-.281.63-.632.63h-6.461a.63.63 0 0 1-.633-.63V11.91c0-.339.271-.61.611-.61h6.483c.351 0 .632.282.632.631v.037c0 .35-.281.63-.632.63h-5.675v3.317h4.841a.629.629 0 1 1 0 1.26h-4.841v-.005z" fill="#000"/>
</svg>